<?xml version="1.0" encoding="utf-8"?>
<!-- Generator: Adobe Illustrator 15.0.2, SVG Export Plug-In . SVG Version: 6.00 Build 0)  -->
<!DOCTYPE svg PUBLIC "-//W3C//DTD SVG 1.1//EN" "http://www.w3.org/Graphics/SVG/1.1/DTD/svg11.dtd">
<svg version="1.1" id="Layer_1" xmlns="http://www.w3.org/2000/svg" xmlns:xlink="http://www.w3.org/1999/xlink" x="0px" y="0px"
	 width="394px" height="246px" viewBox="0 0 394 246" enable-background="new 0 0 394 246" xml:space="preserve">
<path fill="#007DC5" d="M270.018,0c-27.896,0-53.594,9.388-74.125,25.164C175.361,9.388,149.662,0,121.767,0
	C54.518,0,0,54.519,0,121.769c0,67.248,54.518,121.766,121.767,121.766c27.895,0,53.594-9.385,74.125-25.162
	c20.532,15.777,46.229,25.162,74.125,25.162c67.25,0,121.768-54.518,121.768-121.766C391.785,54.519,337.268,0,270.018,0z"/>
<path fill="#ADCAEA" d="M72.101,171.714c0,1.797-0.439,3.243-2.225,3.288v0.027c-0.965,0.078,0.228,0.117-0.543,0.117
	c-6.054,0-10.334-1.33-12.839-3.992c-2.506-2.66-3.76-7.172-3.76-13.533v-21.684c0-3.433-0.503-5.986-1.504-7.664
	c-0.995-1.662-2.732-2.857-5.205-3.594c-1.254-0.496-2.146-1.705-2.146-3.135c0-1.41,0.864-2.613,2.088-3.126v-0.006
	c4.513-1.194,6.768-4.742,6.768-10.643V84.64c0-5.744,1.291-9.891,3.874-12.436c2.584-2.544,6.826-3.816,12.725-3.816h0.543v0.004
	c1.849,0.013,2.346,1.511,2.346,3.361c0,1.852-0.497,2.32-2.346,2.331v0.04c-4.436,0.078-7.423,0.83-8.965,2.256
	S58.6,80.565,58.6,84.65v23.582c0,2.66-0.35,5.109-1.044,7.344c-0.807,2.508-2.871,4.591-6.187,6.247
	c2.66,1.427,4.53,3.161,5.611,5.204c1.078,2.045,1.619,4.938,1.619,8.676v22.716c0,4.396,0.73,7.315,2.197,8.764
	c1.465,1.445,4.491,2.188,9.08,2.227v0.047C71.661,169.5,72.101,169.916,72.101,171.714L72.101,171.714z M319.717,171.714
	c0,1.797,1.439,3.243,3.225,3.288v0.027c0.965,0.078-0.229,0.117,0.543,0.117c6.057,0,10.334-1.33,12.84-3.992
	c2.51-2.66,3.762-7.172,3.762-13.533v-21.684c0-3.433,0.502-5.986,1.504-7.664c0.996-1.662,2.73-2.857,5.205-3.594
	c1.256-0.496,2.145-1.705,2.145-3.135c0-1.41-0.861-2.613-2.088-3.126v-0.006c-4.512-1.194-6.768-4.742-6.768-10.643V84.64
	c0-5.744-1.291-9.891-3.875-12.436c-2.582-2.544-6.824-3.816-12.725-3.816h-0.543v0.004c-1.848,0.013-3.346,1.511-3.346,3.361
	c0,1.852,1.498,2.32,3.346,2.331v0.04c4.436,0.078,7.424,0.83,8.965,2.256c1.543,1.426,2.314,4.186,2.314,8.271v23.582
	c0,2.66,0.348,5.109,1.041,7.344c0.809,2.508,2.873,4.591,6.188,6.247c-2.66,1.427-4.529,3.161-5.611,5.204
	c-1.076,2.045-1.617,4.938-1.617,8.676v22.716c0,4.396-0.732,7.315-2.197,8.764c-1.467,1.445-4.492,2.188-9.082,2.227v0.047
	C321.156,169.5,319.717,169.916,319.717,171.714L319.717,171.714z"/>
<path fill="#FFFFFF" d="M314.488,98.042c0,3.533-1.131,6.51-3.391,8.932s-5.047,3.631-8.363,3.631c-1.357,0-2.684-0.238-3.979-0.717
	c-1.42-0.508-2.701-1.38-3.842-2.615v0.752h-0.021c-0.006,1.428-1.162,2.58-2.592,2.58c-1.428,0-2.586-1.152-2.59-2.58h-0.002
	V79.974c0-1.527,1.236-2.766,2.766-2.766c1.525,0,2.764,1.237,2.764,2.766v8.491c0.311-0.263,0.688-0.563,1.133-0.901
	c1.807-1.279,3.896-1.92,6.271-1.92c3.332,0,6.139,1.188,8.422,3.574C313.346,91.601,314.488,94.542,314.488,98.042L314.488,98.042z
	 M308.658,98.089c0-1.959-0.656-3.601-1.967-4.928c-1.312-1.327-2.932-1.991-4.857-1.991c-2.021,0-3.664,0.661-4.93,1.98
	c-1.266,1.315-1.896,3.025-1.896,5.123c0,1.928,0.656,3.541,1.967,4.836c1.312,1.293,2.932,1.94,4.859,1.94
	c1.943,0,3.564-0.666,4.867-2C308.006,101.718,308.658,100.065,308.658,98.089L308.658,98.089z M277.688,85.724
	c-1.557,0-2.818,1.238-2.818,2.767v8.604c0,5.535-2.146,8.305-6.441,8.305c-2.299,0-3.811-0.777-4.531-2.336
	c-0.426-0.896-0.637-1.903-0.637-3.03c-0.031-0.339-0.049-1.319-0.049-2.938v-8.15c0.025-0.148,0.049-0.299,0.049-0.454
	c0-1.525-1.264-2.767-2.82-2.767c-1.559,0-2.82,1.238-2.82,2.767l0.002,0.005v8.601c0,2.483,0.02,4.025,0.068,4.627
	c0.145,1.744,0.535,3.217,1.182,4.42c0.725,1.355,1.859,2.438,3.41,3.25c1.549,0.811,3.275,1.215,5.182,1.215
	c2.877,0,5.088-0.842,6.633-2.521c0.281-0.309,0.668-0.776,1.154-1.409v1.072l-0.027,0.27c0,1.43,1.186,2.59,2.645,2.59
	c1.457,0,2.637-1.152,2.643-2.58h0.004V88.495C280.51,86.962,279.248,85.724,277.688,85.724L277.688,85.724z M249.205,104.718
	h-4.191V80.834l-0.008-0.008l0.012-0.112c0-1.392-1.129-2.521-2.52-2.521h-7.232c-1.393,0-2.521,1.131-2.521,2.521
	c0,1.395,1.129,2.521,2.521,2.521v0.024h4.27v21.458h-4.27c-1.393,0-2.521,1.131-2.521,2.521c0,1.394,1.129,2.521,2.521,2.521
	h13.941c1.395,0,2.521-1.128,2.521-2.521C251.727,105.849,250.598,104.718,249.205,104.718L249.205,104.718z M221.666,93.004
	c1.004,1.046,3.297,1.046,4.379,0s1.082-2.741,0-3.788c-5.062-4.885-13.295-4.885-18.355,0c-5.059,4.889-5.059,12.838,0.004,17.725
	c2.527,2.443,5.852,3.664,9.176,3.664c3.322,0,6.645-1.223,9.178-3.664c1.082-1.047,1.082-2.741,0-3.789
	c-1.084-1.045-3.373-1.045-4.379,0c-2.689,2.799-7.062,2.799-9.752,0c-1.346-1.397-2.02-3.235-2.02-5.073
	c0-1.837,0.674-3.677,2.02-5.074C214.602,90.208,218.977,90.208,221.666,93.004z M111.577,106.774
	c-2.473-2.452-3.708-5.397-3.708-8.838c0-3.438,1.235-6.373,3.708-8.803c2.473-2.429,5.457-3.644,8.953-3.644
	c3.495,0,6.486,1.218,8.975,3.656c2.488,2.437,3.731,5.367,3.731,8.789c0,3.438-1.239,6.386-3.721,8.838
	c-2.479,2.453-5.476,3.679-8.985,3.679C117.034,110.452,114.049,109.228,111.577,106.774L111.577,106.774z M113.313,97.983
	c0,2.004,0.703,3.713,2.109,5.125c1.406,1.414,3.109,2.121,5.107,2.121c2.014,0,3.72-0.707,5.118-2.121
	c1.399-1.412,2.099-3.137,2.099-5.172c0-2.002-0.699-3.711-2.099-5.125c-1.398-1.414-3.104-2.119-5.118-2.119
	c-1.998,0-3.701,0.709-5.107,2.131C114.015,94.246,113.313,95.966,113.313,97.983L113.313,97.983z M177.33,95.39h12.912
	c-0.797-2.836-3.055-4.369-6.512-4.369C180.574,91.021,178.352,92.554,177.33,95.39z M164.205,80.103v27.574
	c0,1.43-1.145,2.59-2.559,2.59c-1.412,0-2.561-1.16-2.561-2.59v-0.004h-0.023v-0.55c-0.273,0.354-0.616,0.709-1.027,1.062
	c-1.768,1.513-4,2.268-6.697,2.268c-3.246,0-5.984-1.21-8.217-3.631c-2.232-2.42-3.348-5.398-3.348-8.93
	c0-3.519,1.119-6.463,3.359-8.838c2.24-2.375,5.021-3.562,8.342-3.562c1.219,0,2.362,0.169,3.43,0.509
	c1.279,0.417,2.574,1.188,3.885,2.312v-8.211c0-1.516,1.213-2.742,2.709-2.742S164.205,78.587,164.205,80.103L164.205,80.103z
	 M158.973,97.983c0-2.051-0.626-3.727-1.875-5.021s-2.873-1.941-4.868-1.941c-1.89,0-3.478,0.67-4.767,2.013
	c-1.287,1.342-1.931,3.007-1.931,4.997c0,1.929,0.647,3.555,1.943,4.881c1.294,1.327,2.88,1.99,4.754,1.99
	c1.936,0,3.542-0.66,4.823-1.979C158.333,101.604,158.973,99.958,158.973,97.983L158.973,97.983z M95.893,92.853
	c0.996,1.047,3.264,1.047,4.336,0c1.071-1.047,1.071-2.742,0-3.787c-5.01-4.885-13.161-4.885-18.17,0
	c-5.008,4.886-5.008,12.836,0,17.723c2.505,2.443,5.793,3.664,9.084,3.664c3.29,0,6.58-1.221,9.086-3.664
	c1.071-1.046,1.071-2.742,0-3.787c-1.072-1.045-3.34-1.047-4.336,0c-2.662,2.797-6.993,2.798-9.654,0
	c-1.331-1.397-1.996-3.235-1.996-5.073s0.665-3.677,1.996-5.074C88.9,90.058,93.231,90.058,95.893,92.853L95.893,92.853z
	 M194.451,106.931c-2.56,2.35-5.845,3.521-9.129,3.521l-1.183-0.003l-0.031,0.003c-3.67,0-6.696-1.168-9.08-3.505
	c-2.383-2.338-3.574-5.295-3.574-8.872c0-3.5,1.233-6.474,3.702-8.918c2.467-2.445,5.385-3.667,8.827-3.667
	c3.521,0,6.437,1.234,8.753,3.701c1.885,2.009,3.004,4.375,3.352,7.23l-0.021,0.059l0.021,0.229c0,1.791-1.416,3.242-3.161,3.242
	h-15.645c0.311,1.496,1.113,2.751,2.418,3.631c1.303,0.878,2.91,1.318,4.822,1.318l0.885-0.002c1.619-0.041,3.455-0.646,4.781-1.82
	l-0.004,0.005c1.032-1.085,3.071-1.085,4.184,0c1.113,1.084,1.113,2.842,0,3.928L194.451,106.931L194.451,106.931z M123.327,154.843
	c-2.472-2.455-3.707-5.398-3.707-8.841c0-3.438,1.235-6.373,3.707-8.801c2.474-2.43,5.456-3.645,8.952-3.645
	c3.496,0,6.485,1.219,8.974,3.653c2.487,2.438,3.731,5.367,3.731,8.791c0,3.439-1.24,6.386-3.72,8.838
	c-2.479,2.453-5.476,3.679-8.985,3.679C128.784,158.519,125.801,157.293,123.327,154.843L123.327,154.843z M125.063,146.052
	c0,2.004,0.704,3.711,2.11,5.123c1.405,1.413,3.108,2.118,5.106,2.118c2.014,0,3.72-0.705,5.118-2.118
	c1.398-1.412,2.098-3.138,2.098-5.173c0-2.002-0.699-3.711-2.098-5.125c-1.398-1.411-3.104-2.116-5.118-2.116
	c-1.998,0-3.701,0.709-5.106,2.131C125.766,142.312,125.063,144.031,125.063,146.052L125.063,146.052z M219.926,128.509v27.575
	c0,1.429-1.145,2.589-2.561,2.589c-1.412,0-2.559-1.16-2.559-2.589v-0.004h-0.023v-0.551c-0.273,0.354-0.617,0.709-1.027,1.062
	c-1.77,1.513-4.002,2.269-6.697,2.269c-3.246,0-5.982-1.209-8.217-3.633c-2.233-2.42-3.35-5.398-3.35-8.931
	c0-3.516,1.121-6.463,3.36-8.838c2.238-2.375,5.021-3.562,8.344-3.562c1.221,0,2.361,0.17,3.43,0.51
	c1.279,0.416,2.574,1.187,3.885,2.312v-8.212c0.002-1.514,1.215-2.739,2.709-2.739C218.713,125.769,219.926,126.994,219.926,128.509
	L219.926,128.509z M214.691,146.392c0-2.053-0.625-3.726-1.873-5.021c-1.25-1.295-2.873-1.942-4.869-1.942
	c-1.891,0-3.479,0.672-4.766,2.016c-1.287,1.342-1.932,3.006-1.932,4.996c0,1.928,0.646,3.555,1.943,4.881
	c1.295,1.328,2.879,1.99,4.754,1.99c1.936,0,3.543-0.66,4.82-1.979C214.053,150.011,214.691,148.365,214.691,146.392
	L214.691,146.392z M189.332,152.634h-4.189v-23.886l-0.008-0.008l0.012-0.111c0-1.393-1.129-2.52-2.523-2.52h-7.23
	c-1.394,0-2.521,1.129-2.521,2.52c0,1.394,1.129,2.521,2.521,2.521v0.021h4.268v21.461h-4.268c-1.394,0-2.521,1.13-2.521,2.521
	s1.129,2.521,2.521,2.521h13.941c1.395,0,2.521-1.132,2.521-2.521C191.854,153.763,190.725,152.634,189.332,152.634L189.332,152.634
	z M115.089,136.363c0-1.516-1.23-2.744-2.745-2.744c-1.189,0-2.193,0.765-2.575,1.822l-0.011,0.004l-5.649,15.807l-4.46-15.194
	l-0.013,0.002c-0.505-1.418-1.847-2.439-3.438-2.439c-1.59,0-2.933,1.021-3.439,2.439l-0.015-0.002l-4.46,15.194l-5.649-15.807
	l-0.013-0.004c-0.38-1.062-1.383-1.822-2.573-1.822c-1.515,0-2.745,1.229-2.745,2.744c0,0.379,0.077,0.738,0.216,1.066l-0.003,0.004
	l7.217,18.729h0.001c0.591,1.383,1.965,2.355,3.562,2.355c1.604,0,2.98-0.979,3.567-2.367l4.332-15.443l4.332,15.443
	c0.587,1.391,1.964,2.367,3.567,2.367c1.598,0,2.972-0.976,3.562-2.355h0.001l7.217-18.729l-0.004-0.004
	C115.011,137.103,115.089,136.742,115.089,136.363L115.089,136.363z M169.688,136.22c0-1.375-0.967-2.593-2.67-2.593
	c-2.687,0-4.061,0.729-5.467,1.859c-1.576,1.271-2.82,3.104-3.465,4.689v-3.896h-0.008c-0.047-1.475-1.252-2.66-2.738-2.66
	c-1.486,0-2.693,1.187-2.739,2.66h-0.009v19.33l-0.016,0.154c0,1.521,1.236,2.756,2.756,2.756c1.487,0,2.695-1.187,2.745-2.66h0.009
	v-4.315c0-2.712,0.244-4.773,0.73-6.189c0.486-1.412,1.277-2.648,2.37-3.703c1.093-1.057,2.809-2.832,5.908-2.832l0.006-0.002
	C168.531,138.812,169.688,137.649,169.688,136.22L169.688,136.22z M240.938,154.843c-2.473-2.455-3.707-5.398-3.707-8.841
	c0-3.438,1.234-6.373,3.707-8.801c2.475-2.43,5.457-3.645,8.953-3.645s6.484,1.219,8.973,3.653c2.488,2.438,3.732,5.367,3.732,8.791
	c0,3.439-1.24,6.386-3.721,8.838c-2.48,2.453-5.479,3.679-8.984,3.679C246.395,158.519,243.412,157.293,240.938,154.843
	L240.938,154.843z M242.672,146.052c0,2.004,0.705,3.711,2.111,5.123c1.404,1.413,3.109,2.118,5.107,2.118
	c2.014,0,3.719-0.705,5.117-2.118c1.398-1.412,2.098-3.138,2.098-5.173c0-2.002-0.699-3.711-2.098-5.125
	c-1.398-1.411-3.104-2.116-5.117-2.116c-1.998,0-3.703,0.709-5.107,2.131C243.377,142.312,242.672,144.031,242.672,146.052
	L242.672,146.052z M286.299,136.22c0-1.375-0.969-2.593-2.672-2.593c-2.686,0-4.061,0.729-5.467,1.859
	c-1.576,1.271-2.82,3.104-3.463,4.689v-3.896h-0.01c-0.047-1.475-1.252-2.66-2.738-2.66s-2.693,1.187-2.738,2.66h-0.01v19.33
	l-0.016,0.154c0,1.521,1.234,2.756,2.756,2.756c1.488,0,2.695-1.187,2.746-2.66h0.01v-4.315c0-2.712,0.242-4.773,0.729-6.189
	c0.486-1.412,1.277-2.648,2.369-3.703c1.094-1.057,2.811-2.832,5.908-2.832l0.006-0.002
	C285.141,138.812,286.299,137.649,286.299,136.22L286.299,136.22z M291.312,159.709c1.008-1.008,2.65-0.998,3.672,0.021
	c0,0,1.893,2.02,5.121,2.02c7.6,0,7.121-7.457,7.121-7.457c-1.312,1.789-3.393,3.966-7.658,3.966c-3.322,0-6.104-1.188-8.344-3.562
	c-2.238-2.375-3.359-5.084-3.359-8.602c0-3.529,1.117-6.511,3.35-8.931c2.232-2.422,4.971-3.631,8.219-3.631
	c2.693,0,4.928,0.756,6.695,2.269c0.41,0.354,0.754,0.709,1.027,1.062v-0.551h0.023v-0.004c0-1.43,1.146-2.59,2.559-2.59
	c1.416,0,2.561,1.16,2.561,2.59v15.506c0,6.074-1.32,9.584-3.75,12.014c-2.07,2.072-5.736,2.974-8.436,2.974
	c-5.877,0-8.779-3.42-8.779-3.42C290.312,162.361,290.303,160.718,291.312,159.709L291.312,159.709z M305.146,141.067
	c-1.281-1.32-2.889-1.98-4.824-1.98c-1.873,0-3.459,0.664-4.754,1.99s-1.943,2.953-1.943,4.883c0,1.99,0.645,3.416,1.934,4.759
	c1.287,1.342,2.875,2.014,4.766,2.014c1.996,0,3.619-0.648,4.869-1.941c1.248-1.297,1.873-2.731,1.873-4.782
	C307.064,144.029,306.426,142.386,305.146,141.067L305.146,141.067z M229.986,151.901c-1.922,0-3.479,1.559-3.479,3.48
	c0,1.921,1.557,3.479,3.479,3.479c1.924,0,3.479-1.557,3.479-3.479C233.465,153.459,231.91,151.901,229.986,151.901z"/>
</svg>
